HIERARCHY
ROOT ui
{
	 OFFSET 0 0 0
	 CHANNELS 3 XPosition YPosition Z Position
	 EndSite
	 {
	 OFFSET 0 -1 0
	 }
}
ROOT li
{
	 OFFSET 0 0 0
	 CHANNELS 3 XPosition YPosition Z Position
	 EndSite
	 {
	 OFFSET 0 -1 0
	 }
}
ROOT ul
{
	 OFFSET 0 0 0
	 CHANNELS 3 XPosition YPosition Z Position
	 EndSite
	 {
	 OFFSET 0 -1 0
	 }
}
ROOT ll
{
	 OFFSET 0 0 0
	 CHANNELS 3 XPosition YPosition Z Position
	 EndSite
	 {
	 OFFSET 0 -1 0
	 }
}
ROOT tt
{
	 OFFSET 0 0 0
	 CHANNELS 3 XPosition YPosition Z Position
	 EndSite
	 {
	 OFFSET 0 -1 0
	 }
}
ROOT tb
{
	 OFFSET 0 0 0
	 CHANNELS 3 XPosition YPosition Z Position
	 EndSite
	 {
	 OFFSET 0 -1 0
	 }
}
ROOT td
{
	 OFFSET 0 0 0
	 CHANNELS 3 XPosition YPosition Z Position
	 EndSite
	 {
	 OFFSET 0 -1 0
	 }
}
ROOT v
{
	 OFFSET 0 0 0
	 CHANNELS 3 XPosition YPosition Z Position
	 EndSite
	 {
	 OFFSET 0 -1 0
	 }
}
ROOT bn
{
	 OFFSET 0 0 0
	 CHANNELS 3 XPosition YPosition Z Position
	 EndSite
	 {
	 OFFSET 0 -1 0
	 }
}
MOTION
Frames: 32
Frame Time: 0.002
0.002681902885437012	-0.0017393829822540284	0		0.47288299560546876	-2.450470458984375	0		-1.0671429443359375	-0.07464115142822265	0		-0.811988037109375	-2.615747314453125	0		1.19427734375	-0.9126983642578125	0		2.821320556640625	-0.002640716075897217	0		4.58006884765625	0.2444164276123047	0		5.7780546875	0.18451808166503905	0		-0.1407976531982422	5.90173876953125	0		
0.017906637191772462	-0.016446027755737305	0		0.43133120727539065	-2.449964599609375	0		-1.1165594482421874	-0.0719040756225586	0		-0.8006883544921874	-2.62233837890625	0		1.2027288818359374	-0.9153014526367188	0		2.80681201171875	-0.004807748794555664	0		4.58758642578125	0.24270626831054687	0		5.77761474609375	0.1849351806640625	0		-0.12580764770507813	5.91205322265625	0		
0.015666074752807617	-0.007790365219116211	0		0.460862060546875	-2.4480166015625	0		-1.1128902587890626	-0.06733515167236329	0		-0.830998046875	-2.61204541015625	0		1.1654630126953125	-0.9059312133789063	0		2.830782470703125	0.013177584648132325	0		4.591310546875	0.24906149291992188	0		5.7781640625	0.18331283569335938	0		-0.12600052642822265	5.9126728515625	0		
0.020180471420288087	-0.012312291145324707	0		0.45263778686523437	-2.4362763671875	0		-1.113268310546875	-0.06670839691162109	0		-0.8063447265625	-2.60597314453125	0		1.2011544189453125	-0.9011708374023437	0		2.795328857421875	0.010421216011047363	0		4.58198974609375	0.2516746520996094	0		5.77362255859375	0.1757763671875	0		-0.14235154724121094	5.90461328125	0		
0.011889536857604981	-0.009586852073669433	0		0.4652556457519531	-2.434023193359375	0		-1.117692626953125	-0.07002823638916016	0		-0.8216827392578125	-2.601066650390625	0		1.155775390625	-0.9006818237304688	0		2.819748046875	-6.668689846992493E-4	0		4.578533203125	0.2461309356689453	0		5.7543408203125	0.17853643798828125	0		-0.14247740173339843	5.9051708984375	0		
-0.024182809829711913	0.0017116880416870118	0		0.4379234313964844	-2.430934326171875	0		-1.1179935302734374	-0.06947283935546875	0		-0.8241138305664063	-2.602477294921875	0		1.19737060546875	-0.9041190185546875	0		2.80658349609375	0.006034871101379394	0		4.5782431640625	0.24649034118652344	0		5.76400244140625	0.17663796997070313	0		-0.14257266235351562	5.90569287109375	0		
0.011325974464416504	-0.008589790344238282	0		0.4810880432128906	-2.4534228515625	0		-1.11826025390625	-0.06895496368408204	0		-0.8736926879882813	-2.611897216796875	0		1.1551517333984376	-0.8997619018554688	0		2.812601318359375	0.019288984298706055	0		4.58594140625	0.24464581298828125	0		5.75052880859375	0.1672144012451172	0		-0.12742728424072267	5.9158486328125	0		
-0.021615503311157226	0.005573492050170898	0		0.4491348571777344	-2.436296875	0		-1.1144091796875	-0.0645625	0		-0.7990697631835938	-2.615062744140625	0		1.1999012451171875	-0.8993363647460938	0		2.8101943359375	0.011691580772399903	0		4.5808916015625	0.2530542755126953	0		5.7545185546875	0.17738900756835937	0		-0.1284519805908203	5.91731982421875	0		
0.004175477981567382	0.0054165940284729005	0		0.4747874145507813	-2.439467041015625	0		-1.114614013671875	-0.06411788177490234	0		-0.8081077880859375	-2.60343310546875	0		1.16592041015625	-0.8872192993164062	0		2.82112060546875	0.0177770938873291	0		4.5806962890625	0.25332916259765625	0		5.75010302734375	0.16771885681152343	0		-0.12750070953369141	5.91671337890625	0		
-0.006301019191741943	-0.00798293113708496	0		0.47250347900390627	-2.44105810546875	0		-1.0517813720703124	-0.06408916473388672	0		-0.8144830322265625	-2.6088994140625	0		1.1994739990234375	-0.8986161499023437	0		2.825794189453125	0.010968353271484375	0		4.577400390625	0.24764620971679688	0		5.749935546875	0.16793597412109376	0		-0.14272285461425782	5.90742626953125	0		
-2.013790011405945E-4	0.003228432893753052	0		0.47125604248046876	-2.442702392578125	0		-1.1190166015625	-0.0672452392578125	0		-0.8255130615234375	-2.60029345703125	0		1.193443603515625	-0.892171875	0		2.812591796875	0.008525875091552735	0		4.57726708984375	0.24787205505371093	0		5.7497998046875	0.16813117980957032	0		-0.12847055053710937	5.9184658203125	0		
-3.0671501159667966E-4	0.0035419409275054933	0		0.44620733642578125	-2.4368525390625	0		-1.1191236572265626	-0.06690464782714843	0		-0.8148597412109375	-2.608199462890625	0		1.199183349609375	-0.898017578125	0		2.79531494140625	0.001146554946899414	0		4.5751240234375	0.246119140625	0		5.7464794921875	0.158373779296875	0		-0.12745487976074218	5.9177607421875	0		
0.01835655212402344	-0.008590575218200683	0		0.45792791748046874	-2.44384228515625	0		-1.1151065673828124	-0.06268638610839844	0		-0.8689072265625	-2.603712646484375	0		1.165344970703125	-0.8860172119140625	0		2.83269921875	0.021548166275024414	0		4.589189453125	0.2519904022216797	0		5.7547646484375	0.17434844970703126	0		-0.12641386413574218	5.91702392578125	0		
0.021413286209106444	-0.004405996799468994	0		0.4760195922851562	-2.43599755859375	0		-1.11513818359375	-0.062411827087402345	0		-0.80893896484375	-2.60176416015625	0		1.207242431640625	-0.8887125854492187	0		2.80536767578125	0.008340091705322265	0		4.5770791015625	0.24841419982910157	0		5.731611328125	0.16899111938476563	0		-0.1282796630859375	5.91932177734375	0		
-3.9961400628089905E-4	0.004299413204193115	0		0.4361443176269531	-2.427904052734375	0		-1.1192208251953124	-0.0660790023803711	0		-0.823889404296875	-2.597196533203125	0		1.1931690673828126	-0.8912025146484375	0		2.800529052734375	0.015620170593261718	0		4.580220703125	0.2544857635498047	0		5.7373984375	0.15897926330566406	0		-0.14240397644042968	5.9088583984375	0		
0.01836768913269043	-0.007919394969940185	0		0.47084548950195315	-2.441482421875	0		-1.1260516357421875	-0.059710670471191406	0		-0.81511865234375	-2.607181884765625	0		1.1512449951171875	-0.88810009765625	0		2.818274658203125	0.0023773179054260253	0		4.5771298828125	0.24867457580566407	0		5.72846142578125	0.16027947998046874	0		-0.12803091430664063	5.91974658203125	0		
-0.02529789924621582	0.005221336841583252	0		0.4200354919433594	-2.433192626953125	0		-1.1191273193359375	-0.06567343139648438	0		-0.8150978393554688	-2.606996337890625	0		1.19910302734375	-0.8970000610351563	0		2.811754638671875	0.02165916633605957	0		4.57514892578125	0.24682537841796875	0		5.73745458984375	0.15717098999023438	0		-0.1278845977783203	5.91992236328125	0		
0.0038351049423217772	0.007734099864959717	0		0.47399853515625	-2.43723583984375	0		-1.1149671630859375	-0.061595130920410156	0		-0.8109703979492188	-2.602921875	0		1.165416259765625	-0.8851149291992187	0		2.798500732421875	0.007066444873809814	0		4.5804013671875	0.2548070983886719	0		5.73433251953125	0.148318359375	0		-0.12773432922363281	5.9200771484375	0		
-0.006390221118927002	-0.005906692028045654	0		0.4501688537597656	-2.431577392578125	0		-1.1148865966796875	-0.06144763946533203	0		-0.8109181518554688	-2.60277783203125	0		1.2005894775390624	-0.8807667236328125	0		2.8257080078125	0.012572779655456542	0		4.5804853515625	0.25489112854003904	0		5.7244619140625	0.1506098175048828	0		-0.1275871353149414	5.92021337890625	0		
0.003999263048171997	0.007987926006317139	0		0.46326971435546876	-2.42975048828125	0		-1.1188917236328124	-0.06522898864746093	0		-0.8237241821289063	-2.59636572265625	0		1.159718017578125	-0.877754150390625	0		2.8306572265625	0.0065560550689697265	0		4.58057080078125	0.2549668579101563	0		5.72454638671875	0.15067477416992187	0		-0.1284263153076172	5.92135546875	0		
-0.021915082931518556	0.008666104316711425	0		0.4462017822265625	-2.435273193359375	0		-1.11881298828125	-0.06511659240722656	0		-0.825708740234375	-2.5982109375	0		1.19351708984375	-0.8904076538085938	0		2.800942626953125	0.016298580169677734	0		4.58065185546875	0.25503523254394533	0		5.730404296875	0.14060418701171876	0		-0.14156329345703125	5.90975	0		
0.015749646186828614	-0.010080256462097169	0		0.4799411010742187	-2.44993505859375	0		-1.11874169921875	-0.06502088928222656	0		-0.8040337524414063	-2.61559912109375	0		1.1657008056640625	-0.8847083129882812	0		2.80055029296875	-0.004624319076538086	0		4.56557421875	0.2484296417236328	0		5.7304326171875	0.13865892028808594	0		-0.12623841094970703	5.919505859375	0		
-0.006095259189605713	-0.005521143913269043	0		0.43326849365234377	-2.436827392578125	0		-1.1046397705078126	-0.06325210952758789	0		-0.7998963623046875	-2.611611083984375	0		1.207703857421875	-0.8875675048828126	0		2.82911328125	0.01781275749206543	0		4.579765625	0.2541726379394531	0		5.73886865234375	0.15552676391601564	0		-0.11193360900878906	5.9292685546875	0		
0.014036239624023438	-0.0019050710201263428	0		0.47843161010742186	-2.431765625	0		-1.111479736328125	-0.058036445617675785	0		-0.8445570068359375	-2.59755810546875	0		1.165803955078125	-0.88458349609375	0		2.7909716796875	0.009706665992736816	0		4.5849677734375	0.26110733032226563	0		5.72576513671875	0.14885972595214844	0		-0.12706509399414062	5.92066162109375	0		
-0.006016514778137207	-0.005415793895721436	0		0.4463792724609375	-2.435011474609375	0		-1.1145146484375	-0.060922092437744144	0		-0.8147130737304688	-2.60617236328125	0		1.200935791015625	-0.8803135986328126	0		2.82197265625	0.008064800262451172	0		4.58255712890625	0.2411978302001953	0		5.7216201171875	0.14099032592773436	0		-0.1270281753540039	5.9207080078125	0		
2.3420800268650056E-4	0.005484530925750733	0		0.4635180053710938	-2.429352783203125	0		-1.118593017578125	-0.0647975845336914	0		-0.825523193359375	-2.59789599609375	0		1.15999951171875	-0.877371337890625	0		2.8118515625	0.002324455976486206	0		4.5856982421875	0.2471680603027344	0		5.7174091796875	0.13111979675292967	0		-0.14126197814941407	5.9100556640625	0		
-0.024776952743530273	0.006065207004547119	0		0.4463770751953125	-2.434946533203125	0		-1.114522705078125	-0.060861186981201174	0		-0.81471484375	-2.60611083984375	0		1.1599840087890625	-0.877341064453125	0		2.808166748046875	0.01744283103942871	0		4.58568017578125	0.2472052001953125	0		5.7173916015625	0.13115919494628905	0		-0.12705123901367188	5.920771484375	0		
-0.006070940017700195	-0.005329358100891113	0		0.45042669677734376	-2.43101171875	0		-1.190528076171875	-0.058162689208984375	0		-0.87071630859375	-2.603853271484375	0		1.1599407958984376	-0.8773142700195312	0		2.79890185546875	0.007676642894744873	0		4.57978955078125	0.25437466430664063	0		5.72569677734375	0.1470209197998047	0		-0.12711781311035156	5.9207939453125	0		
0.004160926818847656	0.008465522766113282	0		0.4664922180175781	-2.42534521484375	0		-1.1146435546875	-0.06082839584350586	0		-0.8215474853515625	-2.593923583984375	0		1.2008157958984376	-0.8801947631835938	0		2.8169990234375	0.015309948921203614	0		4.58555712890625	0.24728553771972656	0		5.71149169921875	0.14137910461425782	0		-0.1272219009399414	5.9208125	0		
-0.02193450927734375	0.009056885719299317	0		0.4482335815429688	-2.43292578125	0		-1.127520751953125	-0.05053377914428711	0		-0.8148995361328125	-2.606063720703125	0		1.1529080810546875	-0.8711117553710938	0		2.827607421875	0.002105005979537964	0		4.5806318359375	0.255440185546875	0		5.7123447265625	0.13941081237792968	0		-0.1273613052368164	5.92082861328125	0		
0.015534034729003906	-0.009763293266296387	0		0.4720117492675781	-2.438436279296875	0		-1.0449964599609376	-0.06735710144042968	0		-0.8258244018554688	-2.597814208984375	0		1.19473583984375	-0.8740149536132813	0		2.818507080078125	0.0033404269218444823	0		4.5853271484375	0.24738235473632814	0		5.70804296875	0.1315605926513672	0		-0.12850994873046875	5.9218642578125	0		
-0.025267194747924805	0.006150206089019775	0		0.4459645080566406	-2.4348466796875	0		-1.1150108642578125	-0.06081086730957031	0		-0.8500471801757813	-2.602279052734375	0		1.1595218505859375	-0.8772183227539062	0		2.8120791015625	-0.009485814094543457	0		4.56520947265625	0.24887815856933593	0		5.7120751953125	0.13953533935546875	0		-0.12675201416015625	5.91983154296875	0		
